<?xml version="1.0" encoding="utf-8"?>
<svg version="1.1" xmlns="http://www.w3.org/2000/svg" xmlns:xlink="http://www.w3.org/1999/xlink" x="0px" y="0px"
	 viewBox="0 0 196 28" style="enable-background:new 0 0 196 28;" xml:space="preserve">
<style type="text/css">
	.st2{fill:#4C5F77;}
</style>
	<g>
		<path class="st2" d="M9.86,6.45c0-0.95-0.38-3.34-3.12-3.34c-3,0-3.27,2.58-3.27,4.03v14.32c0,0.95,0.42,3.46,3.08,3.46
			c1.48,0,3.31-0.65,3.31-3.72v-0.84h2.89v0.99c0,3.8-1.75,6.35-6.31,6.35c-5.32,0-5.81-4.33-5.81-5.85V6.1c0-3,2.09-5.78,5.97-5.78
			c3.31,0,6.04,1.6,6.04,5.81v1.71H9.86V6.45z"/>
		<path class="st2" d="M15.6,7.43c0-1.98,0.15-3.88,1.9-5.51c1.06-1.03,2.58-1.6,4.48-1.6c1.9,0,3.42,0.57,4.48,1.6
			c1.75,1.63,1.9,3.53,1.9,5.51v13.15c0,1.98-0.15,3.88-1.9,5.51c-1.06,1.03-2.58,1.6-4.48,1.6c-1.9,0-3.42-0.57-4.48-1.6
			c-1.75-1.63-1.9-3.53-1.9-5.51V7.43z M25.51,6.83c0-0.95-0.08-1.9-0.99-2.77c-0.53-0.53-1.41-0.95-2.55-0.95
			c-1.14,0-2.01,0.42-2.55,0.95c-0.91,0.87-0.99,1.82-0.99,2.77v14.36c0,0.95,0.08,1.9,0.99,2.81c0.53,0.49,1.41,0.91,2.55,0.91
			c1.14,0,2.01-0.42,2.55-0.91c0.91-0.91,0.99-1.86,0.99-2.81V6.83z"/>
		<path class="st2" d="M34.56,0.71v23.97h8.4v2.62H31.71V0.71H34.56z"/>
		<path class="st2" d="M48.45,0.71v26.6H45.6V0.71H48.45z"/>
		<path class="st2" d="M54.8,0.71l7.52,19.8V0.71h2.85v26.6h-2.85L54.8,7.89v19.42h-2.85V0.71H54.8z"/>
		<path class="st2" d="M75.59,23.85c0.61,0.57,1.22,1.06,2.55,1.06c1.14,0,2.01-0.42,2.55-0.91c0.91-0.91,0.99-1.86,0.99-2.81V0.71
			h2.85v19.87c0,1.98-0.15,3.88-1.9,5.51c-1.06,1.03-2.58,1.6-4.48,1.6c-1.9,0-3.34-0.53-4.56-1.79L75.59,23.85z"/>
		<path class="st2" d="M87.9,7.43c0-1.98,0.15-3.88,1.9-5.51c1.06-1.03,2.58-1.6,4.48-1.6c1.9,0,3.42,0.57,4.48,1.6
			c1.75,1.63,1.9,3.53,1.9,5.51v13.15c0,1.98-0.15,3.88-1.9,5.51c-1.06,1.03-2.58,1.6-4.48,1.6c-1.9,0-3.42-0.57-4.48-1.6
			c-1.75-1.63-1.9-3.53-1.9-5.51V7.43z M97.82,6.83c0-0.95-0.08-1.9-0.99-2.77C96.3,3.52,95.43,3.1,94.29,3.1
			c-1.14,0-2.01,0.42-2.55,0.95c-0.91,0.87-0.99,1.82-0.99,2.77v14.36c0,0.95,0.08,1.9,0.99,2.81c0.53,0.49,1.41,0.91,2.55,0.91
			c1.14,0,2.01-0.42,2.55-0.91c0.91-0.91,0.99-1.86,0.99-2.81V6.83z"/>
		<path class="st2" d="M106.94,0.71V12.6h6.42V0.71h2.85v26.6h-2.85V15.07h-6.42v12.23h-2.85V0.71H106.94z"/>
		<path class="st2" d="M122.64,0.71l7.52,19.8V0.71h2.85v26.6h-2.85l-7.52-19.42v19.42h-2.85V0.71H122.64z"/>
		<path class="st2" d="M145.9,7.09c0-0.68-0.08-1.94-0.8-2.89c-0.46-0.53-1.18-1.1-2.55-1.1c-0.68,0-1.6,0.15-2.32,0.87
			c-0.91,0.95-0.99,2.2-0.99,3.23c0,0.8,0.04,2.17,0.68,3.19c0.53,0.76,1.44,1.22,2.09,1.44l2.43,0.87c1.1,0.38,2.51,1.03,3.38,2.24
			c0.95,1.29,1.06,2.74,1.06,4.41v0.95c0,2.62-0.72,4.56-1.75,5.7c-0.95,0.99-2.62,1.67-4.75,1.67c-2.62,0-4.29-0.95-5.13-2.09
			c-1.14-1.52-1.14-4.06-1.14-4.41v-0.95h2.85V21c0,0.72,0.11,1.98,0.76,2.81c0.84,0.99,1.98,1.1,2.62,1.1
			c1.75,0,2.51-0.68,2.93-1.18c0.72-0.91,0.76-2.17,0.76-3.08v-1.03c0-1.03-0.11-2.36-0.76-3.15c-0.65-0.87-1.71-1.29-2.17-1.44
			l-2.89-1.03c-1.29-0.46-2.58-1.18-3.31-2.85c-0.49-1.18-0.53-2.47-0.53-3.76V6.6c0-2.13,0.8-3.72,1.9-4.75
			c1.18-1.14,2.7-1.52,4.37-1.52c3.65,0,6.08,2.36,6.08,6.61v0.91h-2.85V7.09z"/>
		<path class="st2" d="M163.3,0.71v2.62h-4.94v23.97h-2.85V3.33h-4.9V0.71H163.3z"/>
		<path class="st2" d="M165.28,7.43c0-1.98,0.15-3.88,1.9-5.51c1.06-1.03,2.58-1.6,4.48-1.6c1.9,0,3.42,0.57,4.48,1.6
			c1.75,1.63,1.9,3.53,1.9,5.51v13.15c0,1.98-0.15,3.88-1.9,5.51c-1.06,1.03-2.58,1.6-4.48,1.6c-1.9,0-3.42-0.57-4.48-1.6
			c-1.75-1.63-1.9-3.53-1.9-5.51V7.43z M175.2,6.83c0-0.95-0.08-1.9-0.99-2.77c-0.53-0.53-1.41-0.95-2.55-0.95
			c-1.14,0-2.01,0.42-2.54,0.95c-0.91,0.87-0.99,1.82-0.99,2.77v14.36c0,0.95,0.08,1.9,0.99,2.81c0.53,0.49,1.41,0.91,2.54,0.91
			c1.14,0,2.01-0.42,2.55-0.91c0.91-0.91,0.99-1.86,0.99-2.81V6.83z"/>
		<path class="st2" d="M184.13,0.71l7.52,19.8V0.71h2.85v26.6h-2.85l-7.52-19.42v19.42h-2.85V0.71H184.13z"/>
	</g>
</svg>
