<?xml version="1.0" encoding="utf-8"?>
<!-- Generator: Adobe Illustrator 24.2.3, SVG Export Plug-In . SVG Version: 6.00 Build 0)  -->
<svg version="1.1" id="Layer_1" xmlns="http://www.w3.org/2000/svg" xmlns:xlink="http://www.w3.org/1999/xlink" x="0px" y="0px"
	 viewBox="0 0 196 28" style="enable-background:new 0 0 196 28;" xml:space="preserve">
<style type="text/css">
	.st0{fill:#4C5F77;}
</style>
<g>
	<path class="st0" d="M12.9,19.8v1.7c0,0.8-0.2,1.6-0.5,2.4c-0.3,0.7-0.8,1.4-1.3,2c-0.6,0.6-1.3,1.1-2,1.4
		c-0.8,0.3-1.6,0.5-2.4,0.5c-0.8,0-1.5-0.1-2.2-0.3c-0.8-0.2-1.5-0.6-2-1.1c-0.6-0.6-1.1-1.2-1.5-2c-0.4-1-0.6-2-0.6-3.1V6.5
		c0-0.8,0.2-1.7,0.5-2.5c0.6-1.5,1.8-2.7,3.3-3.3c0.8-0.3,1.7-0.5,2.6-0.5C8.3,0.2,9.9,0.8,11.1,2c0.6,0.6,1,1.3,1.3,2.1
		c0.3,0.8,0.5,1.7,0.5,2.6v1.5H9V6.9c0-0.7-0.2-1.4-0.6-2C7.9,4.4,7.3,4.1,6.6,4.1C5.9,4,5.1,4.4,4.7,5C4.3,5.7,4.2,6.5,4.2,7.3
		v13.8c0,0.7,0.1,1.4,0.5,2c0.4,0.6,1.1,0.9,1.8,0.8c0.3,0,0.6,0,0.8-0.1c0.3-0.1,0.6-0.2,0.8-0.4c0.3-0.2,0.4-0.5,0.6-0.8
		C8.9,22,9,21.6,9,21.1v-1.3H12.9z"/>
	<path class="st0" d="M15.6,6.8c0-1,0.2-1.9,0.6-2.8c0.3-0.8,0.9-1.5,1.5-2.1c0.6-0.5,1.3-1,2.1-1.3c2.3-0.8,4.9-0.4,6.8,1.2
		C27.2,2.5,27.7,3.2,28,4c0.4,0.9,0.6,1.9,0.6,2.9v14.2c0,1-0.2,2-0.6,2.9c-0.3,0.8-0.9,1.4-1.5,2c-0.6,0.6-1.3,1-2.1,1.3
		c-1.5,0.6-3.2,0.6-4.7,0c-0.8-0.3-1.5-0.7-2.1-1.3c-0.6-0.5-1.2-1.2-1.5-2c-0.4-0.9-0.6-1.9-0.6-2.9L15.6,6.8z M19.5,21.1
		c-0.1,0.8,0.2,1.5,0.8,2.1c1.1,0.9,2.6,0.9,3.7,0c0.6-0.5,0.8-1.3,0.8-2.1V6.8c0.1-0.8-0.2-1.5-0.8-2.1c-1.1-0.9-2.6-0.9-3.7,0
		c-0.6,0.5-0.8,1.3-0.8,2.1L19.5,21.1z"/>
	<path class="st0" d="M31.7,27.5V0.4h3.9v23.2h7.7v3.9L31.7,27.5z"/>
	<path class="st0" d="M45.8,27.5V0.4h3.9v27.1H45.8z"/>
	<path class="st0" d="M52.9,27.5V0.4h3.7l5.9,16.3h0.1V0.4h3.9v27.1h-3.7l-5.9-16.3h-0.1v16.3H52.9z"/>
	<path class="st0" d="M85.4,0.4v20.7c0,1.7-0.6,3.4-1.8,4.6c-0.6,0.6-1.3,1.1-2.1,1.4c-0.9,0.4-1.8,0.6-2.8,0.5
		c-1.1,0-2.2-0.2-3.1-0.8c-0.7-0.5-1.4-1-2-1.6l3-2.4c0.3,0.3,0.6,0.5,1,0.7c0.4,0.2,0.8,0.3,1.2,0.3c0.3,0,0.5,0,0.8-0.1
		c0.3-0.1,0.6-0.3,0.9-0.5c0.3-0.3,0.5-0.6,0.7-1c0.2-0.5,0.3-1.1,0.3-1.6V0.4H85.4z"/>
	<path class="st0" d="M88.5,6.8c0-1,0.2-1.9,0.5-2.8c0.4-0.8,0.9-1.5,1.5-2.1c0.6-0.6,1.3-1,2.1-1.3c0.8-0.3,1.6-0.4,2.4-0.4
		c0.8,0,1.6,0.1,2.3,0.4c0.8,0.3,1.5,0.7,2.1,1.2c0.6,0.6,1.1,1.3,1.5,2.1c0.4,0.9,0.6,1.9,0.6,2.9v14.2c0,1-0.2,2-0.6,2.9
		c-0.3,0.8-0.9,1.4-1.5,2c-0.6,0.5-1.3,1-2.1,1.3c-0.7,0.3-1.5,0.4-2.3,0.4c-0.8,0-1.6-0.1-2.3-0.4c-0.8-0.3-1.5-0.7-2.1-1.3
		c-0.6-0.5-1.2-1.2-1.5-2c-0.4-0.9-0.6-1.9-0.6-2.9L88.5,6.8z M92.3,21.1c-0.1,0.8,0.2,1.5,0.8,2.1c1.1,0.9,2.6,0.9,3.7,0
		c0.6-0.5,0.8-1.3,0.8-2.1V6.8c0.1-0.8-0.2-1.5-0.8-2.1c-1.1-0.9-2.6-0.9-3.7,0c-0.6,0.5-0.8,1.3-0.8,2.1V21.1z"/>
	<path class="st0" d="M104.5,27.5V0.4h3.9V12h4.8V0.4h3.9v27.1h-3.9v-12h-4.8v12H104.5z"/>
	<path class="st0" d="M120.2,27.5V0.4h3.8l5.9,16.3h0.1V0.4h3.9v27.1h-3.7l-5.9-16.3h-0.1v16.3H120.2z"/>
	<path class="st0" d="M149.7,8.2h-3.9V7.4c0-0.8-0.2-1.6-0.6-2.3c-0.5-0.7-1.3-1.1-2.1-1c-0.5,0-0.9,0.1-1.3,0.3
		c-0.3,0.2-0.6,0.5-0.8,0.8c-0.2,0.3-0.4,0.7-0.4,1.1c-0.1,0.4-0.1,0.9-0.1,1.3c0,0.4,0,0.9,0.1,1.3c0,0.3,0.1,0.7,0.3,1
		c0.2,0.3,0.4,0.5,0.7,0.7c0.4,0.2,0.8,0.4,1.2,0.6l3,1.2c0.8,0.3,1.5,0.7,2.1,1.2c0.5,0.4,0.9,0.9,1.2,1.5c0.3,0.7,0.5,1.4,0.6,2.1
		c0.1,0.9,0.2,1.8,0.1,2.6c0,1.1-0.1,2.1-0.3,3.2c-0.2,0.9-0.6,1.7-1.1,2.5c-0.5,0.7-1.3,1.3-2.1,1.7c-1,0.4-2.1,0.6-3.2,0.6
		c-0.9,0-1.8-0.2-2.6-0.5c-0.8-0.3-1.5-0.8-2.1-1.4c-0.6-0.6-1.1-1.3-1.4-2c-0.3-0.8-0.5-1.7-0.5-2.5v-1.5h3.9v1.2
		c0,0.7,0.2,1.4,0.6,1.9c0.5,0.6,1.3,0.9,2.1,0.9c0.5,0,1.1-0.1,1.5-0.3c0.4-0.2,0.7-0.5,0.9-0.8c0.2-0.4,0.3-0.8,0.4-1.3
		c0-0.5,0.1-1,0.1-1.6c0-0.6,0-1.2-0.1-1.8c0-0.4-0.1-0.8-0.3-1.1c-0.2-0.3-0.4-0.5-0.7-0.7c-0.4-0.2-0.8-0.4-1.2-0.6l-2.8-1.1
		c-1.4-0.5-2.6-1.4-3.4-2.7c-0.6-1.3-0.9-2.8-0.9-4.2c0-1,0.1-1.9,0.4-2.9c0.2-0.9,0.7-1.7,1.2-2.4c0.5-0.7,1.2-1.2,2-1.6
		c0.9-0.4,1.9-0.6,2.9-0.6c0.9,0,1.8,0.2,2.6,0.5c0.8,0.3,1.5,0.8,2.2,1.4c1.1,1.1,1.8,2.6,1.8,4.2L149.7,8.2z"/>
	<path class="st0" d="M155.9,27.5V4.1h-4.5V0.4h12.8v3.6h-4.5v23.4H155.9z"/>
	<path class="st0" d="M166.2,6.8c0-1,0.2-1.9,0.6-2.8c0.4-0.8,0.9-1.5,1.5-2.1c0.6-0.5,1.3-1,2.1-1.3c0.7-0.3,1.5-0.4,2.3-0.4
		c0.8,0,1.6,0.1,2.3,0.4c0.8,0.3,1.5,0.7,2.1,1.2c0.6,0.6,1.2,1.3,1.5,2.1c0.4,0.9,0.6,1.9,0.6,2.9v14.2c0,1-0.2,2-0.6,2.9
		c-0.4,0.8-0.9,1.4-1.5,2c-0.6,0.6-1.3,1-2.1,1.3c-0.7,0.3-1.5,0.4-2.3,0.4c-0.8,0-1.6-0.1-2.3-0.4c-0.8-0.3-1.5-0.7-2.1-1.3
		c-0.6-0.5-1.2-1.2-1.5-2c-0.4-0.9-0.6-1.9-0.6-2.9L166.2,6.8z M170.1,21.1c-0.1,0.8,0.2,1.5,0.8,2.1c1.1,0.9,2.6,0.9,3.7,0
		c0.6-0.5,0.8-1.3,0.8-2.1V6.8c0.1-0.8-0.2-1.5-0.8-2.1c-1.1-0.9-2.6-0.9-3.7,0c-0.6,0.5-0.8,1.3-0.8,2.1V21.1z"/>
	<path class="st0" d="M182.1,27.5V0.4h3.7l5.9,16.3h0.1V0.4h3.9v27.1H192l-5.9-16.3H186v16.3H182.1z"/>
</g>
</svg>
