<svg id="Layer_1" data-name="Layer 1" xmlns="http://www.w3.org/2000/svg" viewBox="0 0 196 28">
  <g>
    <path d="M12.88,19.79v1.68a6,6,0,0,1-.48,2.37,6.48,6.48,0,0,1-1.31,2,6.32,6.32,0,0,1-2,1.38,5.73,5.73,0,0,1-2.41.52,8.82,8.82,0,0,1-2.24-.31,5.22,5.22,0,0,1-2.05-1.06,5.85,5.85,0,0,1-1.5-2,6.84,6.84,0,0,1-.59-3.06V6.46A6.65,6.65,0,0,1,.79,4,5.87,5.87,0,0,1,4.08.7,6.65,6.65,0,0,1,6.65.22,5.88,5.88,0,0,1,11.09,2,6.14,6.14,0,0,1,12.4,4.08a7,7,0,0,1,.48,2.6V8.2H9V6.91a3.11,3.11,0,0,0-.64-2A2.11,2.11,0,0,0,6.61,4.1,2,2,0,0,0,4.69,5a4.76,4.76,0,0,0-.48,2.26V21.09a3.51,3.51,0,0,0,.52,2,2,2,0,0,0,1.84.8,2.84,2.84,0,0,0,.82-.13,2.47,2.47,0,0,0,.81-.44,2.22,2.22,0,0,0,.57-.84A3.21,3.21,0,0,0,9,21.12V19.79Z"/>
    <path d="M15.63,6.84A6.9,6.9,0,0,1,16.2,4a6,6,0,0,1,1.52-2.09A6.54,6.54,0,0,1,19.79.64a6.88,6.88,0,0,1,6.78,1.22A6.32,6.32,0,0,1,28.05,4a6.9,6.9,0,0,1,.57,2.89V21.12a6.87,6.87,0,0,1-.57,2.93,6,6,0,0,1-1.48,2,6.4,6.4,0,0,1-2.11,1.26,6.7,6.7,0,0,1-4.67,0,6.13,6.13,0,0,1-2.07-1.26,5.69,5.69,0,0,1-1.52-2,6.87,6.87,0,0,1-.57-2.93ZM19.5,21.12a2.56,2.56,0,0,0,.78,2.07,2.88,2.88,0,0,0,3.69,0,2.56,2.56,0,0,0,.78-2.07V6.84A2.6,2.6,0,0,0,24,4.76a2.91,2.91,0,0,0-3.69,0,2.6,2.6,0,0,0-.78,2.08Z"/>
    <path d="M31.67,27.51V.45h3.87V23.63h7.68v3.88Z"/>
    <path d="M45.84,27.51V.45h3.88V27.51Z"/>
    <path d="M52.91,27.51V.45h3.72l5.86,16.3h.07V.45h3.88V27.51H62.79L56.86,11.24h-.07V27.51Z"/>
    <path d="M85.44.45V21.12a6.54,6.54,0,0,1-1.75,4.64,6.31,6.31,0,0,1-2.07,1.44,6.76,6.76,0,0,1-2.8.54,5.51,5.51,0,0,1-3.09-.82,10,10,0,0,1-2-1.62l3-2.43a3.82,3.82,0,0,0,1,.7,2.49,2.49,0,0,0,1.16.29,2.87,2.87,0,0,0,.8-.13,2.22,2.22,0,0,0,.87-.52,2.42,2.42,0,0,0,.69-1,4.38,4.38,0,0,0,.26-1.65V.45Z"/>
    <path d="M88.47,6.84A6.9,6.9,0,0,1,89,4a6.13,6.13,0,0,1,1.52-2.09A6.54,6.54,0,0,1,92.63.64,6.89,6.89,0,0,1,95,.22a6.8,6.8,0,0,1,2.34.42,7.09,7.09,0,0,1,2.11,1.22A6.32,6.32,0,0,1,100.9,4a6.9,6.9,0,0,1,.57,2.89V21.12a6.87,6.87,0,0,1-.57,2.93,6,6,0,0,1-1.48,2,6.61,6.61,0,0,1-2.11,1.26,6.8,6.8,0,0,1-2.34.42,6.89,6.89,0,0,1-2.34-.42,6.13,6.13,0,0,1-2.07-1.26,5.81,5.81,0,0,1-1.52-2,6.87,6.87,0,0,1-.57-2.93Zm3.88,14.28a2.56,2.56,0,0,0,.78,2.07,2.86,2.86,0,0,0,3.68,0,2.56,2.56,0,0,0,.78-2.07V6.84a2.6,2.6,0,0,0-.78-2.08,2.89,2.89,0,0,0-3.68,0,2.6,2.6,0,0,0-.78,2.08Z"/>
    <path d="M104.51,27.51V.45h3.88V12h4.79V.45h3.87V27.51h-3.87v-12h-4.79V27.51Z"/>
    <path d="M120.22,27.51V.45H124l5.85,16.3h.07V.45h3.88V27.51H130.1l-5.93-16.27h-.07V27.51Z"/>
    <path d="M149.71,8.24h-3.88V7.37a4.18,4.18,0,0,0-.62-2.3,2.31,2.31,0,0,0-2.11-1,2.48,2.48,0,0,0-1.3.3,2.73,2.73,0,0,0-.79.76,3.21,3.21,0,0,0-.42,1.12,7,7,0,0,0-.12,1.32,12.3,12.3,0,0,0,.06,1.33,2.64,2.64,0,0,0,.29,1,2.14,2.14,0,0,0,.66.72,6.59,6.59,0,0,0,1.2.61l3,1.17a7.44,7.44,0,0,1,2.09,1.16A5.27,5.27,0,0,1,149,15.08a7.14,7.14,0,0,1,.57,2.07,20.92,20.92,0,0,1,.15,2.64,14.49,14.49,0,0,1-.34,3.18,6.76,6.76,0,0,1-1.11,2.49,5.46,5.46,0,0,1-2.08,1.67,7.51,7.51,0,0,1-3.16.61,6.87,6.87,0,0,1-2.62-.5,6.12,6.12,0,0,1-2.09-1.37,6.66,6.66,0,0,1-1.39-2,6.18,6.18,0,0,1-.51-2.53V19.87h3.88v1.22a3.12,3.12,0,0,0,.62,1.91,2.45,2.45,0,0,0,2.11.86,3.4,3.4,0,0,0,1.54-.29,2.1,2.1,0,0,0,.86-.81,3.1,3.1,0,0,0,.36-1.28c0-.49.05-1,.05-1.65a16.87,16.87,0,0,0-.07-1.75,3.06,3.06,0,0,0-.31-1.1,2.07,2.07,0,0,0-.7-.68,8.38,8.38,0,0,0-1.16-.57l-2.77-1.14a6.15,6.15,0,0,1-3.37-2.72,9.36,9.36,0,0,1-.85-4.24A9.74,9.74,0,0,1,137,4.75a6.5,6.5,0,0,1,1.25-2.36,5.82,5.82,0,0,1,2-1.58,6.87,6.87,0,0,1,2.95-.59,6.36,6.36,0,0,1,2.64.54A6.69,6.69,0,0,1,148,2.16a5.86,5.86,0,0,1,1.75,4.18Z"/>
    <path d="M155.9,27.51V4.1h-4.48V.45h12.84V4.1h-4.48V27.51Z"/>
    <path d="M166.18,6.84A6.9,6.9,0,0,1,166.75,4a6.13,6.13,0,0,1,1.52-2.09A6.54,6.54,0,0,1,170.34.64a6.8,6.8,0,0,1,2.34-.42A6.89,6.89,0,0,1,175,.64a7.09,7.09,0,0,1,2.11,1.22A6.46,6.46,0,0,1,178.61,4a6.9,6.9,0,0,1,.57,2.89V21.12a6.87,6.87,0,0,1-.57,2.93,6.11,6.11,0,0,1-1.48,2A6.61,6.61,0,0,1,175,27.32a6.89,6.89,0,0,1-2.34.42,6.8,6.8,0,0,1-2.34-.42,6.13,6.13,0,0,1-2.07-1.26,5.81,5.81,0,0,1-1.52-2,6.87,6.87,0,0,1-.57-2.93Zm3.88,14.28a2.56,2.56,0,0,0,.78,2.07,2.86,2.86,0,0,0,3.68,0,2.56,2.56,0,0,0,.78-2.07V6.84a2.6,2.6,0,0,0-.78-2.08,2.89,2.89,0,0,0-3.68,0,2.6,2.6,0,0,0-.78,2.08Z"/>
    <path d="M182.15,27.51V.45h3.72l5.85,16.3h.08V.45h3.88V27.51H192L186.1,11.24H186V27.51Z"/>
  </g>
</svg>
