<svg id="icon-eye" xmlns="http://www.w3.org/2000/svg" preserveAspectRatio="xMidYMid meet"  x="0" y="0" viewBox="0 0 512 512"><defs><style>.cls-1{fill:#545860;}</style></defs><title>icon-eye</title><path class="cls-1" d="M256,96C144.34,96,47.56,161,0,256c47.56,95,144.34,160,256,160s208.44-65,256-160C464.44,161,367.66,96,256,96Zm126.23,84.85A243.43,243.43,0,0,1,456.94,256a243.53,243.53,0,0,1-74.71,75.15,234.63,234.63,0,0,1-252.46,0A243.53,243.53,0,0,1,55.06,256a243.43,243.43,0,0,1,74.71-75.15q2.94-1.86,5.93-3.65a128,128,0,1,0,240.6,0q3,1.78,5.93,3.65ZM256,205a48,48,0,1,1-48-48A48,48,0,0,1,256,205Z"/></svg>